PathFileType	4	(X/Y/Z)	OpenSim_Sub11_EMGPreOp_Gyro.trc
DataRate	CameraRate	NumFrames	NumMarkers	Units	OrigDataRate	OrigDataStartFrame	OrigNumFrames
100	100	40	8	m	100	5150	5885
Frame#	Time	torso_imu_offset_imu	pelvis_imu_offset_imu	tibia_r_imu_offset_imu	femur_r_imu_offset_imu	tibia_l_imu_offset_imu	femur_l_imu_offset_imu	toes_r_imu_offset_imu	toes_l_imu_offset_imu
				X1	Y1	Z1	X2	Y2	Z2	X3	Y3	Z3	X4	Y4	Z4	X5	Y5	Z5	X6	Y6	Z6	X7	Y7	Z7	X8		Y8	Z8	

5150	51.49000000	0.02063458	-0.16090438	0.01879849	0.17967177	0.08298207	-0.21219702	0.00000735	0.01778883	-0.20386007	-0.50758674	-0.02676845	-0.30345871	0.64065893	-0.02578444	-2.55634326	-0.27118241	-0.15054838	-0.25913903	0.11683165	0.02111416	-0.09789173	1.01134324	3.02773585	-1.09874036
5151	51.50000000	0.01292879	-0.16928802	0.04014494	0.18994810	0.07540881	-0.18881738	0.03444303	0.02887861	-0.19610976	-0.47531888	-0.00610611	-0.31806740	0.29604894	-0.09460777	-2.69869007	-0.39199730	-0.18373107	-0.19793863	0.12222359	0.02616638	-0.09552881	1.14432512	3.01223010	-1.15242158
5152	51.51000000	-0.00207396	-0.16758582	0.05222831	0.19305333	0.06911043	-0.16840535	0.08109933	0.03558159	-0.22435537	-0.40255348	0.01301845	-0.31843229	-0.13798866	-0.11223131	-2.81760745	-0.46442530	-0.20907869	-0.12850059	0.10548307	0.02613443	-0.09191363	0.92940217	2.90144841	-1.20802216
5153	51.52000000	-0.01859517	-0.16977837	0.05971865	0.19072604	0.06814948	-0.14816597	0.08561236	0.03127503	-0.23835143	-0.29865723	0.03793529	-0.31938806	-0.57096546	-0.11250944	-2.86921077	-0.53117615	-0.22487376	-0.07435803	0.12392380	0.01455544	-0.09363937	0.52857690	2.74784774	-1.32909158
5154	51.53000000	-0.02576324	-0.17433702	0.06371282	0.19259563	0.06240004	-0.13315515	0.08172599	0.03709483	-0.20400007	-0.18079096	0.05450106	-0.32210825	-1.02250249	-0.12081356	-2.86557021	-0.62078396	-0.25077773	-0.02639887	0.11960825	0.02183249	-0.09479759	0.33304445	2.62911529	-1.53783349
5155	51.54000000	-0.01984753	-0.17142791	0.05338661	0.18605801	0.05658894	-0.12624062	0.12957896	0.05807101	-0.18744795	-0.05700940	0.06667186	-0.32398781	-1.49562527	-0.11981131	-2.80766688	-0.72805918	-0.29909680	0.01387017	0.11453564	0.01556565	-0.09230543	0.20433261	2.55601472	-1.79116693
5156	51.55000000	-0.01917482	-0.16847182	0.04939374	0.18652105	0.05458324	-0.12133802	0.19732470	0.07973882	-0.22923882	0.07120205	0.06203425	-0.33703795	-1.90283931	-0.08197583	-2.73068701	-0.80586870	-0.35495273	0.04429317	0.11092107	0.01762255	-0.09127816	0.07281416	2.48641372	-2.02890118
5157	51.56000000	-0.01493089	-0.15612744	0.04041235	0.18707499	0.05228443	-0.11875610	0.19393822	0.08887034	-0.29005193	0.19121854	0.05565148	-0.33771768	-2.10173047	-0.03684078	-2.66214487	-0.75760508	-0.40626896	0.09112809	0.09482730	-0.00229938	-0.08531855	-0.08705054	2.38892072	-2.25242783
5158	51.57000000	-0.00572656	-0.15135467	0.03687261	0.17982188	0.03112013	-0.11543672	0.16515211	0.09179540	-0.32092195	0.26861210	0.04644522	-0.33871450	-2.18494758	0.01354420	-2.63942785	-0.50830708	-0.41934942	0.20555255	0.09178253	0.00700034	-0.07708010	-0.29285274	2.30307184	-2.47938036
5159	51.58000000	0.00494967	-0.15475292	0.03437193	0.16670033	-0.00002458	-0.11460716	0.14683479	0.09142948	-0.30335586	0.30683359	0.03548893	-0.33317755	-2.32148015	0.08315939	-2.65368037	-0.18055655	-0.39489523	0.30506206	0.07380849	-0.00573263	-0.06795268	-0.48834656	2.22211616	-2.69986266
5160	51.59000000	0.01336236	-0.13595467	0.02476933	0.15371038	-0.02109793	-0.11899096	0.11919911	0.09077655	-0.30271754	0.31772311	0.02364433	-0.32934990	-2.49345132	0.14203152	-2.64801239	0.07729551	-0.38091025	0.35943278	0.06002798	-0.01158969	-0.05908468	-0.59338798	2.13264638	-2.83193262
5161	51.60000000	0.02207274	-0.11213045	0.01780837	0.12674093	-0.04706929	-0.11598818	0.06939990	0.09628278	-0.31060667	0.29936379	0.00495207	-0.33196236	-2.61111702	0.17145965	-2.60365122	0.28131681	-0.41016632	0.41106667	0.06298201	-0.02324159	-0.06615328	-0.73193877	2.07677373	-2.83197608
5162	51.61000000	0.04590215	-0.09232092	0.01955033	0.09330213	-0.07879331	-0.11110387	0.03656906	0.10097477	-0.32723649	0.23656102	-0.01568020	-0.33171322	-2.61561556	0.20895286	-2.53090198	0.46207901	-0.48328468	0.48312404	0.05811377	-0.01403571	-0.05836062	-0.82984319	2.02660070	-2.73997332
5163	51.62000000	0.07981724	-0.06632140	0.02050122	0.05418970	-0.09933739	-0.09852202	0.02211173	0.10203951	-0.38537668	0.14313046	-0.03227515	-0.32153064	-2.48592398	0.25290935	-2.42474186	0.57606093	-0.60136306	0.55739589	0.03074643	-0.01358769	-0.05149058	-0.76502257	1.92671356	-2.57053830
5164	51.63000000	0.10848622	-0.03191743	0.03216465	0.02181534	-0.11075881	-0.07674445	-0.03135091	0.10112136	-0.44257743	0.01440754	-0.04330140	-0.30661125	-2.21111564	0.27116571	-2.28230783	0.65326701	-0.73871065	0.65716024	0.02675933	-0.04490008	-0.04563877	-0.71706042	1.79231704	-2.31608286
5165	51.64000000	0.11909067	0.01699084	0.04091750	-0.00828339	-0.10053186	-0.05238125	-0.10916282	0.09624187	-0.44977455	-0.12849571	-0.05322818	-0.29383114	-1.80362513	0.29094364	-2.12086474	0.70032683	-0.86594979	0.76201213	0.01610344	-0.03500435	-0.04263790	-0.65333599	1.66563402	-2.01053324
5166	51.65000000	0.13190425	0.05892992	0.05432115	-0.03414010	-0.09486253	-0.03158593	-0.11986074	0.09247930	-0.44783994	-0.26857952	-0.05723134	-0.28439199	-1.32249552	0.28085775	-1.95913154	0.72134843	-0.95552000	0.85307799	0.02001350	-0.04711055	-0.03514147	-0.54270318	1.53290312	-1.70186405
5167	51.66000000	0.14156964	0.09297213	0.07062647	-0.06310643	-0.09409303	-0.01775957	-0.09236280	0.09246746	-0.48164752	-0.38491914	-0.05746100	-0.28869655	-0.91058511	0.23798775	-1.80363289	0.73487549	-1.00133128	0.90157113	-0.01037508	-0.04311458	-0.02699464	-0.44874252	1.39711743	-1.41131100
5168	51.67000000	0.13670770	0.12056274	0.07716766	-0.09081737	-0.10087264	-0.00678179	-0.10040976	0.09440461	-0.51663997	-0.47101488	-0.05154328	-0.28500582	-0.67408855	0.14329057	-1.64776554	0.76881754	-1.02252630	0.91590311	0.01103746	-0.06411926	-0.02445541	-0.31829175	1.12275721	-1.15582281
5169	51.68000000	0.12838578	0.14251190	0.07717255	-0.12112569	-0.11091418	0.00458178	-0.10289039	0.08788168	-0.54565966	-0.52035044	-0.03408261	-0.28352140	-0.58343892	-0.00028952	-1.47501278	0.82952154	-1.03488143	0.91219752	-0.02418917	-0.05542540	-0.01980773	-0.18937102	1.10541809	-0.93606215
5170	51.69000000	0.12584231	0.16880833	0.06528900	-0.15232475	-0.11225113	0.01473437	-0.06141990	0.08927944	-0.56832008	-0.53711136	-0.01726768	-0.27626397	-0.54192661	-0.15182375	-1.24206036	0.91304563	-1.02534737	0.89188960	-0.03003063	-0.07303095	-0.01428406	0.26902195	-0.02106275	-0.81465468
5171	51.70000000	0.11407654	0.19607369	0.03603070	-0.17613594	-0.10400981	0.02525516	-0.01795000	0.11492112	-0.57761200	-0.51411468	-0.00521553	-0.26534050	-0.34080623	-0.30390731	-0.95211776	1.03986540	-0.92692504	0.83567361	-0.02444619	-0.06646822	-0.00617098	-1.66609715	-1.67937139	-1.34354512
5172	51.71000000	0.10088142	0.19672430	0.01427816	-0.17029781	-0.07990493	0.02942351	-0.00647864	0.14068417	-0.59518510	-0.45424519	0.01104509	-0.25286051	-0.17742746	-0.30723123	-0.57980115	1.22272066	-0.76604803	0.75853270	-0.04429469	-0.09768989	-0.00562402	-3.90830155	-0.22965249	-1.62740995
5173	51.72000000	0.09005415	0.15160975	0.00386669	-0.14415629	-0.03745409	0.02618565	0.01641708	0.15846941	-0.61934052	-0.39918056	0.03182666	-0.24866501	-0.36358460	-0.07459873	-0.05385431	1.42932754	-0.60507164	0.67911626	-0.07098748	-0.09399312	0.01216396	0.34555361	-0.72046445	-0.27884756
5174	51.73000000	0.04568891	0.11468872	-0.01292433	-0.11741553	0.00035102	0.00608365	0.04659143	0.20455024	-0.66677526	-0.31025923	0.03625160	-0.23462560	-0.30570607	0.03359178	0.31495407	1.52013231	-0.49260926	0.58551770	-0.10294128	-0.11665592	0.01924279	1.78569125	-0.33805736	0.24563027
5175	51.74000000	-0.00508325	0.08796294	-0.04562352	-0.07754503	0.03349521	-0.04457593	0.03511435	0.24670653	-0.70165347	-0.20964759	0.02788092	-0.21594216	-0.51527596	0.03620531	0.29657890	1.35158518	-0.36690574	0.45146712	-0.12754288	-0.14525363	0.02115003	1.71212232	0.20849904	-0.18085416
5176	51.75000000	-0.01191528	0.04402393	-0.07153188	-0.00611669	0.05832096	-0.11136011	-0.02154630	0.25138646	-0.70754813	-0.11206858	0.00766346	-0.19981767	-1.26648536	0.02410126	0.14052892	0.94269795	-0.19963838	0.32202663	-0.12658890	-0.16112277	0.00883282	0.05104728	-0.55893603	-0.43074769
5177	51.76000000	-0.00348051	0.03372041	-0.07720685	0.06533585	0.06238650	-0.15502464	-0.08393932	0.24738504	-0.71296766	0.07675445	-0.04318123	-0.15809144	-1.64868211	-0.07046670	0.01061897	0.38507136	-0.09884716	0.21197913	-0.11515826	-0.17201051	0.01043302	-1.53089789	-0.38066472	-0.21791620
5178	51.77000000	0.03890274	0.04507829	-0.05906114	0.09315349	0.03616167	-0.17273311	-0.15332708	0.26048044	-0.74806459	0.22162099	-0.08933092	-0.12456140	-1.37600499	-0.21325326	0.00243672	-0.18228566	-0.15790514	0.13308382	-0.12608319	-0.17934293	0.00536588	0.13323789	-0.34126018	-0.20399625
5179	51.78000000	0.14412953	0.07630388	-0.00013909	0.08820097	0.00890811	-0.14916399	-0.23935227	0.27148810	-0.79786707	0.28383191	-0.11988601	-0.07298100	-0.71312576	-0.33526105	0.20076894	-0.62555737	-0.37011750	0.06467048	-0.11102798	-0.20027397	0.00216357	0.70273743	-0.26561894	-0.29154260
5180	51.79000000	0.21239208	0.10620344	0.03997813	0.06017109	-0.00604506	-0.10534744	-0.31431541	0.27519584	-0.82987554	0.28868980	-0.14313744	0.00379659	0.01451628	-0.26468183	0.38583072	-0.73302782	-0.53964242	0.16745327	-0.11663141	-0.19271236	-0.00006135	-0.15303801	-0.14975817	-0.24880028
5181	51.80000000	0.18580290	0.12089685	0.06389459	0.00282411	-0.00554677	-0.06926434	-0.36676790	0.29146372	-0.85553104	0.23270859	-0.15262562	0.09388903	0.60032650	-0.10095575	0.33685990	-0.56110950	-0.48157936	0.31869858	-0.09386148	-0.20831923	-0.00242557	0.13082725	-0.05598662	-0.20962433
5182	51.81000000	0.14728132	0.10982974	0.10305500	-0.06109549	0.02022975	-0.04769176	-0.39637503	0.30410527	-0.87922964	0.13170120	-0.14562900	0.19564936	1.10858209	-0.07881585	0.16161508	-0.34103814	-0.35461637	0.41208339	-0.11538722	-0.21318021	-0.01676457	0.00070429	0.01226236	-0.15073048
5183	51.82000000	0.11986250	0.08478412	0.13424120	-0.12224503	0.05164431	-0.04357483	-0.40432861	0.30690421	-0.90108636	0.03022591	-0.12088163	0.29414954	1.42582628	-0.14519066	0.02690774	-0.13470581	-0.38065444	0.47851503	-0.05607968	-0.23072715	-0.04694977	-0.19938745	-0.00160553	-0.08271573
5184	51.83000000	0.07919363	0.04671594	0.14851250	-0.17732087	0.07437315	-0.05703871	-0.37816838	0.30004012	-0.93766986	-0.05503742	-0.09049234	0.38270313	1.44172236	-0.16115059	-0.05669673	0.16849476	-0.46492054	0.54461725	-0.04284995	-0.23360787	-0.08478568	-0.14561551	0.06221469	-0.04860785
5185	51.84000000	0.05209511	0.00628275	0.14685853	-0.22650809	0.08273633	-0.09020028	-0.34338901	0.26944819	-0.98940717	-0.12534084	-0.06641416	0.46071474	1.31635949	-0.16554237	-0.08757738	0.49713722	-0.44182081	0.52890035	-0.00729539	-0.24581377	-0.13270559	-0.14562529	0.03526284	-0.03611300
5186	51.85000000	0.01094826	-0.02344906	0.11606032	-0.27645484	0.09146261	-0.12507852	-0.36192583	0.23110817	-1.05782382	-0.16997261	-0.04888326	0.52721063	1.11478489	-0.17461513	-0.07826803	0.71009226	-0.34867246	0.43166902	0.02551913	-0.26089224	-0.21024758	-0.10135382	0.06246026	-0.04197756
5187	51.86000000	-0.03137543	-0.04997519	0.06834846	-0.30744258	0.10700287	-0.15959984	-0.43887649	0.22109662	-1.12142931	-0.17819584	-0.03316243	0.58681504	0.71870045	-0.17204801	-0.10500139	0.83273002	-0.21799323	0.41525263	0.16684448	-0.35699666	-0.32571981	-0.06582843	0.04530707	-0.04597976
5188	51.87000000	-0.07441119	-0.07167181	0.03241200	-0.30270693	0.12825109	-0.17705265	-0.46887087	0.21988234	-1.13947408	-0.16000229	-0.00450694	0.64550667	0.19815422	-0.18189355	-0.15461261	0.89139192	-0.10576435	0.51299133	0.27541818	-0.44065883	-0.38914326	0.00707665	0.03465032	-0.04910782
5189	51.88000000	-0.10470694	-0.09352579	0.00487513	-0.29381510	0.13536705	-0.16220062	-0.44931986	0.18049288	-1.12537678	-0.13237683	0.03378320	0.71091987	-0.22884016	-0.21220363	-0.16859161	0.87948004	-0.07434439	0.67226440	0.28648512	-0.54219049	-0.34945965	0.03257781	0.01302681	-0.06376912
